<?xml version="1.0" encoding="UTF-8" standalone="no"?>
<!-- Generator: Adobe Illustrator 17.1.0, SVG Export Plug-In . SVG Version: 6.00 Build 0)  -->

<svg
   xmlns:dc="http://purl.org/dc/elements/1.1/"
   xmlns:cc="http://creativecommons.org/ns#"
   xmlns:rdf="http://www.w3.org/1999/02/22-rdf-syntax-ns#"
   xmlns:svg="http://www.w3.org/2000/svg"
   xmlns="http://www.w3.org/2000/svg"
   xmlns:sodipodi="http://sodipodi.sourceforge.net/DTD/sodipodi-0.dtd"
   xmlns:inkscape="http://www.inkscape.org/namespaces/inkscape"
   version="1.1"
   id="Capa_1"
   x="0px"
   y="0px"
   viewBox="0 0 150 150"
   style="enable-background:new 0 0 150 150;"
   xml:space="preserve"
   inkscape:version="0.48.5 r10040"
   width="100%"
   height="100%"
   sodipodi:docname="logo.svg"><metadata
     id="metadata11"><rdf:RDF><cc:Work
         rdf:about=""><dc:format>image/svg+xml</dc:format><dc:type
           rdf:resource="http://purl.org/dc/dcmitype/StillImage" /></cc:Work></rdf:RDF></metadata><defs
     id="defs9" /><sodipodi:namedview
     pagecolor="#ffffff"
     bordercolor="#666666"
     borderopacity="1"
     objecttolerance="10"
     gridtolerance="10"
     guidetolerance="10"
     inkscape:pageopacity="0"
     inkscape:pageshadow="2"
     inkscape:window-width="1003"
     inkscape:window-height="560"
     id="namedview7"
     showgrid="false"
     inkscape:zoom="1.5733333"
     inkscape:cx="75"
     inkscape:cy="69.915254"
     inkscape:window-x="216"
     inkscape:window-y="95"
     inkscape:window-maximized="0"
     inkscape:current-layer="Capa_1" /><g
     id="g3"
     style="fill:#cc0000"><path
       d="M137.221,65.694c-0.434-3.471-4.665-8.136-4.665-8.136c-1.41-10.848-5.099-4.99-5.099-4.99   c-4.448-3.255-3.797,4.231-3.797,4.231c-6.292,0-24.843,10.198-36.451,7.377c-11.608-2.821-31.677-0.325-35.149,0.976   s-9.004-0.217-11.716,2.278c-2.712,2.495-10.306,4.014-21.914,10.414C6.823,84.245,7.04,90.103,7.04,90.103   c10.415,4.773,42.526-8.57,42.526-8.57c0,0.868,0.651,1.085,0.651,1.085c-3.038,1.193-5.967,4.665-8.136,4.99   c-2.17,0.325-2.712,1.41-2.712,1.41c-11.282,13.561-7.594,13.344-7.594,13.344c0.434,1.736,1.844,0.542,1.844,0.542   c0.976,0.217,1.41,0.542,2.387-2.17s5.858-10.198,12.693-10.306c6.834-0.109,10.848-2.495,10.848-2.495   c-7.052,6.835-7.485,3.363-6.726,7.268c0.759,3.905,4.448,9.004,5.643,9.872c1.195,0.868,8.135,0,8.135,0   c-1.193-1.736-4.773-1.157-4.773-1.157s-0.759-2.098-2.17-3.617c-1.41-1.519-2.929-6.075,4.122-6.835s11.065-6.184,12.15-7.919   c1.085-1.736,0.434-4.339,5.967-1.627c5.533,2.712,16.707,3.255,16.707,3.255s-0.976,1.519,2.17,5.858   c3.146,4.339,0.868,5.099-2.929,4.882s-3.688,3.471-3.688,3.471c7.16,1.302,5.207-1.085,9.872-1.193   c4.665-0.108,3.472-5.533,2.495-7.485c-0.976-1.953-1.41-5.967-1.41-5.967s5.316-1.302,5.316,3.038s7.811,5.75,11.065,6.509   c3.255,0.759,8.57,3.146,9.981,4.122s4.665,4.665,7.051,3.146c2.387-1.519,3.146-3.58-0.434-3.905   c-3.58-0.325-10.089-6.726-12.259-7.268s-7.16-4.448-8.136-5.099c-0.976-0.651,0.542-4.882,1.193-6.618   c0.651-1.736,8.896-10.414,13.018-6.184c4.122,4.231,7.485,3.146,6.292,2.17s-4.953-5.533-4.953-5.533   c7.74,6.292,10.268,2.387,9.617,1.844C142.211,72.42,137.655,69.166,137.221,65.694z"
       id="path5"
       style="fill:#cc0000" /></g></svg>